<?xml version="1.0" standalone="no"?>
<!DOCTYPE svg PUBLIC "-//W3C//DTD SVG 20010904//EN"
 "http://www.w3.org/TR/2001/REC-SVG-20010904/DTD/svg10.dtd">
<svg version="1.0" xmlns="http://www.w3.org/2000/svg"
 width="1024.000000pt" height="1024.000000pt" viewBox="0 0 1024.000000 1024.000000"
 preserveAspectRatio="xMidYMid meet">
<metadata>
Created by potrace 1.11, written by Peter Selinger 2001-2013
</metadata>
<g transform="translate(0.000000,1024.000000) scale(0.100000,-0.100000)"
fill="#000000" stroke="none">
<path d="M6920 9093 c-30 -16 -41 -34 -91 -148 -396 -910 -822 -2591 -1039
-4095 -27 -189 -27 -190 -48 -190 -28 0 -375 87 -542 136 -138 40 -917 298
-925 306 -5 5 98 638 164 1013 110 621 241 1263 362 1769 32 138 59 261 59
273 0 13 -7 37 -14 52 -44 84 -301 242 -509 313 -73 25 -110 32 -175 32 -72 1
-85 -2 -98 -19 -33 -44 -199 -594 -294 -975 -126 -498 -325 -1505 -406 -2042
-9 -65 -21 -118 -25 -118 -4 0 -62 13 -130 29 -129 31 -297 61 -459 82 -119
15 -439 15 -545 0 -135 -19 -248 -87 -327 -195 -30 -42 -39 -115 -15 -133 6
-5 104 -15 217 -21 330 -19 592 -65 997 -174 177 -48 192 -54 188 -72 -22 -97
-156 -1125 -225 -1731 -28 -242 -75 -648 -105 -903 -30 -254 -55 -475 -55
-492 0 -44 59 -94 175 -150 206 -99 479 -177 655 -187 146 -8 148 -5 161 147
88 1021 180 1886 285 2652 24 180 44 331 44 337 0 6 30 -2 68 -16 559 -213
892 -325 1189 -399 126 -31 229 -57 231 -59 2 -1 -11 -123 -27 -271 -49 -437
-76 -760 -103 -1229 -16 -289 -17 -1182 -1 -1211 36 -64 407 -190 718 -244
144 -25 319 -31 354 -11 l24 13 -7 347 c-20 1027 6 2507 45 2532 6 4 57 10
113 14 162 11 380 43 442 65 238 83 439 346 340 445 -37 37 -83 40 -250 16
-197 -28 -352 -41 -503 -41 l-121 0 4 38 c2 20 16 152 29 292 83 840 224 1655
431 2480 81 326 163 612 310 1080 65 206 119 393 122 415 3 38 0 44 -41 82
-104 96 -312 170 -502 179 -94 5 -115 3 -145 -13z"/>
</g>
</svg>
